<svg width="200" height="240" viewBox="0 0 200 240" xmlns="http://www.w3.org/2000/svg">
  <g transform="translate(100, 90)">
    <!-- 11 colorful petals matching the provided image -->
    <path d="M -3.5 15 L -11 60 A 11 11 0 0 0 11 60 L 3.5 15 A 3.5 3.5 0 0 1 -3.5 15 Z" fill="#EAE673" transform="rotate(0)" />
    <path d="M -3.5 15 L -11 60 A 11 11 0 0 0 11 60 L 3.5 15 A 3.5 3.5 0 0 1 -3.5 15 Z" fill="#F06B52" transform="rotate(22.5)" />
    <path d="M -3.5 15 L -11 60 A 11 11 0 0 0 11 60 L 3.5 15 A 3.5 3.5 0 0 1 -3.5 15 Z" fill="#EB2651" transform="rotate(45)" />
    <path d="M -3.5 15 L -11 60 A 11 11 0 0 0 11 60 L 3.5 15 A 3.5 3.5 0 0 1 -3.5 15 Z" fill="#F7609C" transform="rotate(67.5)" />
    <path d="M -3.5 15 L -11 60 A 11 11 0 0 0 11 60 L 3.5 15 A 3.5 3.5 0 0 1 -3.5 15 Z" fill="#D6298E" transform="rotate(90)" />
    <path d="M -3.5 15 L -11 60 A 11 11 0 0 0 11 60 L 3.5 15 A 3.5 3.5 0 0 1 -3.5 15 Z" fill="#A64CB1" transform="rotate(112.5)" />
    <path d="M -3.5 15 L -11 60 A 11 11 0 0 0 11 60 L 3.5 15 A 3.5 3.5 0 0 1 -3.5 15 Z" fill="#9C87D9" transform="rotate(135)" />
    <path d="M -3.5 15 L -11 60 A 11 11 0 0 0 11 60 L 3.5 15 A 3.5 3.5 0 0 1 -3.5 15 Z" fill="#70A5E3" transform="rotate(157.5)" />
    <path d="M -3.5 15 L -11 60 A 11 11 0 0 0 11 60 L 3.5 15 A 3.5 3.5 0 0 1 -3.5 15 Z" fill="#58B7D6" transform="rotate(180)" />
    <path d="M -3.5 15 L -11 60 A 11 11 0 0 0 11 60 L 3.5 15 A 3.5 3.5 0 0 1 -3.5 15 Z" fill="#6CD9B7" transform="rotate(202.5)" />
    <path d="M -3.5 15 L -11 60 A 11 11 0 0 0 11 60 L 3.5 15 A 3.5 3.5 0 0 1 -3.5 15 Z" fill="#8FE06A" transform="rotate(225)" />
  </g>
  <text x="100" y="195" font-family="Montserrat, Arial, sans-serif" font-weight="900" font-size="38" fill="#ffffff" text-anchor="middle">VSH</text>
  <text x="100" y="215" font-family="Montserrat, Arial, sans-serif" font-weight="700" font-size="12" fill="#ffffff" text-anchor="middle" letter-spacing="6">SINCE 2026</text>
</svg>
